# xmcd
#
# Track frame offsets: 
#        150
#        13780
#        30521
#        47572
#        66357
#        81332
#        100133
#        110229
#        123259
#        140581
#        155866
#        169977
#        181717
#        191680
#        196202
#        213330
#        228688
#        240015
#        251508
#        265743
#        281277
#        294337
#
# Disc length: 4054 seconds
#
# Revision: 0
# Processed by: cddbd v1.5.2PL0 Copyright (c) Steve Scherf et al.
# Submitted via: ExactAudioCopyFreeDBPlugin 1.0
#
DISCID=390fd416
DTITLE=Boris Vian - L'écume  des nuits - Ils Chantent Boris Vian
DYEAR=2013
DGENRE=Pop
TTITLE0=Catherine Ringer  - Les joyeux bouchers
TTITLE1=Daniel Darc - Pas pour moi
TTITLE2=Têtes Raides - Je voudrais pas crever
TTITLE3=Arthur H - Casserole-sérénade
TTITLE4=M- - Cinématographe
TTITLE5=Jean-Louis Auber - Ils cassent le monde
TTITLE6=Jean-Louis Trintignant - Le déserteur
TTITLE7=Olivia Ruiz - La java des bombes atomiques
TTITLE8=Zebda - C'est ici...
TTITLE9=JP Nataf - Ballade du lapin
TTITLE10=Mademoiselle K. - Quand j'aurai du vent dans mon crâne
TTITLE11=François Hadji-Lazaro - Fais-moi mal, Johnny
TTITLE12=Carmen Maria Vega - Bourrée de complexes
TTITLE13=Jean-Louis Trintignant and daniel Mille - Bonjour chien
TTITLE14=Philippe Katerine - Je bois
TTITLE15=Juliette - Complainte du progrès
TTITLE16=Dario Moreno - Vénus de Milo
TTITLE17=Fredo Minablo - Tout fonctionne à l'italiano
TTITLE18=Cadry et les Chachacha - Natacha
TTITLE19=Juliette Gréco - Le déserteur
TTITLE20=Michel Legrand - Le gars de Rochechouard
TTITLE21=Jean-Louis Trintignant - Ile déserte 
EXTD=
EXTT0=
EXTT1=
EXTT2=
EXTT3=
EXTT4=
EXTT5=
EXTT6=
EXTT7=
EXTT8=
EXTT9=
EXTT10=
EXTT11=
EXTT12=
EXTT13=
EXTT14=
EXTT15=
EXTT16=
EXTT17=
EXTT18=
EXTT19=
EXTT20=
EXTT21=
PLAYORDER=
